<svg width="20" height="20" viewBox="0 0 20 20" fill="none" xmlns="http://www.w3.org/2000/svg">
<path fill-rule="evenodd" clip-rule="evenodd" d="M6.4127 11.1589C5.8754 11.1589 5.43889 10.7224 5.43889 10.1851C5.43889 9.6494 5.8754 9.21289 6.4127 9.21289C6.95 9.21289 7.38651 9.6494 7.38651 10.1851C7.38651 10.7224 6.95 11.1589 6.4127 11.1589ZM10.1984 11.1589C9.66111 11.1589 9.2246 10.7224 9.2246 10.1851C9.2246 9.6494 9.66111 9.21289 10.1984 9.21289C10.7357 9.21289 11.1722 9.6494 11.1722 10.1851C11.1722 10.7224 10.7357 11.1589 10.1984 11.1589ZM13.0104 10.1851C13.0104 10.7224 13.4469 11.1589 13.9842 11.1589C14.5215 11.1589 14.958 10.7224 14.958 10.1851C14.958 9.6494 14.5215 9.21289 13.9842 9.21289C13.4469 9.21289 13.0104 9.6494 13.0104 10.1851Z" fill="url(#paint0_linear_883_167)"/>
<path fill-rule="evenodd" clip-rule="evenodd" d="M10.0167 1.6665C5.17501 1.6665 1.66667 5.6216 1.66667 10.0124C1.66667 11.4145 2.07501 12.8575 2.79167 14.1761C2.92501 14.3939 2.94167 14.6685 2.85001 14.9281L2.29167 16.7975C2.16667 17.2482 2.55001 17.5812 2.97501 17.4477L4.65834 16.9478C5.11667 16.7975 5.475 16.9887 5.9 17.2482C7.11667 17.9651 8.63334 18.3332 10 18.3332C14.1333 18.3332 18.3333 15.1367 18.3333 9.98732C18.3333 5.54649 14.75 1.6665 10.0167 1.6665Z" stroke="url(#paint1_linear_883_167)" stroke-width="1.5" stroke-linecap="round" stroke-linejoin="round"/>
<defs>
<linearGradient id="paint0_linear_883_167" x1="10.1985" y1="9.21289" x2="10.1985" y2="11.1589" gradientUnits="userSpaceOnUse">
<stop stop-color="#B621E7" stop-opacity="0.3"/>
<stop offset="1" stop-color="#5E1AF3" stop-opacity="0.3"/>
</linearGradient>
<linearGradient id="paint1_linear_883_167" x1="10" y1="1.6665" x2="10" y2="18.3332" gradientUnits="userSpaceOnUse">
<stop stop-color="#B621E7" stop-opacity="0.64"/>
<stop offset="1" stop-color="#5E1AF3" stop-opacity="0.76"/>
</linearGradient>
</defs>
</svg>
