<svg width="36" height="36" viewBox="0 0 36 36" fill="none" xmlns="http://www.w3.org/2000/svg">
<rect width="36" height="36" rx="4" fill="url(#paint0_linear_883_313)"/>
<path d="M21.7086 10.6696L19.8571 10.6665C17.777 10.6665 16.4327 12.0832 16.4327 14.276V15.9402H14.5711C14.4103 15.9402 14.28 16.0742 14.28 16.2394V18.6507C14.28 18.8159 14.4104 18.9497 14.5711 18.9497H16.4327V25.0341C16.4327 25.1994 16.563 25.3332 16.7239 25.3332H19.1527C19.3136 25.3332 19.4439 25.1992 19.4439 25.0341V18.9497H21.6205C21.7814 18.9497 21.9117 18.8159 21.9117 18.6507L21.9126 16.2394C21.9126 16.1601 21.8818 16.0841 21.8273 16.0279C21.7728 15.9718 21.6985 15.9402 21.6213 15.9402H19.4439V14.5294C19.4439 13.8514 19.6012 13.5071 20.4611 13.5071L21.7083 13.5067C21.869 13.5067 21.9993 13.3727 21.9993 13.2076V10.9686C21.9993 10.8037 21.8692 10.6699 21.7086 10.6696Z" fill="white"/>
<defs>
<linearGradient id="paint0_linear_883_313" x1="-2.23517e-08" y1="2" x2="36" y2="35" gradientUnits="userSpaceOnUse">
<stop stop-color="#7572D9" stop-opacity="0.6"/>
<stop offset="0.794792" stop-color="#D62FC3" stop-opacity="0.6"/>
<stop offset="0.9999" stop-color="#B959C6" stop-opacity="0.6"/>
</linearGradient>
</defs>
</svg>
