<svg width="21" height="12" viewBox="0 0 21 12" fill="none" xmlns="http://www.w3.org/2000/svg">
<path d="M19.95 2.11765H1.05C0.771523 2.11765 0.504451 2.00609 0.307538 1.80753C0.110625 1.60896 0 1.33964 0 1.05882C0 0.778006 0.110625 0.50869 0.307538 0.310122C0.504451 0.111554 0.771523 0 1.05 0H19.95C20.2285 0 20.4955 0.111554 20.6925 0.310122C20.8894 0.50869 21 0.778006 21 1.05882C21 1.33964 20.8894 1.60896 20.6925 1.80753C20.4955 2.00609 20.2285 2.11765 19.95 2.11765ZM16.45 7.05882H4.55C4.27152 7.05882 4.00445 6.94727 3.80754 6.7487C3.61062 6.55013 3.5 6.28082 3.5 6C3.5 5.71918 3.61062 5.44987 3.80754 5.2513C4.00445 5.05273 4.27152 4.94118 4.55 4.94118H16.45C16.7285 4.94118 16.9955 5.05273 17.1925 5.2513C17.3894 5.44987 17.5 5.71918 17.5 6C17.5 6.28082 17.3894 6.55013 17.1925 6.7487C16.9955 6.94727 16.7285 7.05882 16.45 7.05882ZM12.25 12H8.75C8.47152 12 8.20445 11.8884 8.00754 11.6899C7.81062 11.4913 7.7 11.222 7.7 10.9412C7.7 10.6604 7.81062 10.391 8.00754 10.1925C8.20445 9.99391 8.47152 9.88235 8.75 9.88235H12.25C12.5285 9.88235 12.7955 9.99391 12.9925 10.1925C13.1894 10.391 13.3 10.6604 13.3 10.9412C13.3 11.222 13.1894 11.4913 12.9925 11.6899C12.7955 11.8884 12.5285 12 12.25 12Z" fill="white"/>
</svg>
