<svg width="36" height="36" viewBox="0 0 36 36" fill="none" xmlns="http://www.w3.org/2000/svg">
<rect width="36" height="36" rx="4" fill="url(#paint0_linear_883_310)"/>
<path d="M24.6536 15.2535C24.6224 14.5451 24.5078 14.058 24.3437 13.636C24.1744 13.188 23.9139 12.7869 23.5727 12.4535C23.2392 12.1149 22.8355 11.8518 22.3927 11.6851C21.9682 11.521 21.4837 11.4064 20.7753 11.3752C20.0615 11.3413 19.835 11.3335 18.0247 11.3335C16.2145 11.3335 15.9879 11.3413 15.2768 11.3726C14.5683 11.4038 14.0813 11.5185 13.6593 11.6825C13.2113 11.8518 12.8102 12.1123 12.4768 12.4535C12.1382 12.7869 11.8751 13.1906 11.7084 13.6334C11.5443 14.058 11.4297 14.5424 11.3985 15.2509C11.3646 15.9646 11.3568 16.1912 11.3568 18.0015C11.3568 19.8117 11.3646 20.0383 11.3958 20.7494C11.4271 21.4578 11.5417 21.9449 11.7058 22.3669C11.8751 22.8149 12.1382 23.216 12.4768 23.5494C12.8102 23.888 13.2139 24.1511 13.6567 24.3178C14.0813 24.4819 14.5657 24.5965 15.2742 24.6277C15.9852 24.6591 16.2119 24.6668 18.0222 24.6668C19.8324 24.6668 20.059 24.6591 20.7701 24.6277C21.4785 24.5965 21.9656 24.4819 22.3875 24.3178C23.2836 23.9714 23.9921 23.2629 24.3385 22.3669C24.5025 21.9424 24.6172 21.4578 24.6484 20.7494C24.6796 20.0383 24.6875 19.8117 24.6875 18.0015C24.6875 16.1912 24.6848 15.9646 24.6536 15.2535ZM23.4529 20.6973C23.4242 21.3485 23.3148 21.7001 23.2237 21.9345C22.9996 22.5154 22.5386 22.9764 21.9578 23.2004C21.7233 23.2916 21.3692 23.401 20.7205 23.4296C20.0173 23.4609 19.8064 23.4686 18.0274 23.4686C16.2483 23.4686 16.0348 23.4609 15.3341 23.4296C14.6829 23.401 14.3313 23.2916 14.0968 23.2004C13.8078 23.0936 13.5447 22.9243 13.3311 22.7029C13.1097 22.4867 12.9404 22.2262 12.8336 21.9372C12.7424 21.7027 12.633 21.3485 12.6044 20.6999C12.5731 19.9967 12.5654 19.7857 12.5654 18.0067C12.5654 16.2276 12.5731 16.0141 12.6044 15.3135C12.633 14.6623 12.7424 14.3107 12.8336 14.0762C12.9404 13.7871 13.1097 13.5241 13.3338 13.3104C13.5499 13.089 13.8103 12.9197 14.0995 12.813C14.3339 12.7218 14.6882 12.6124 15.3367 12.5837C16.04 12.5525 16.251 12.5447 18.0299 12.5447C19.8116 12.5447 20.0225 12.5525 20.7232 12.5837C21.3744 12.6124 21.726 12.7218 21.9604 12.813C22.2495 12.9197 22.5126 13.089 22.7261 13.3104C22.9475 13.5266 23.1168 13.7871 23.2237 14.0762C23.3148 14.3107 23.4242 14.6648 23.4529 15.3135C23.4841 16.0167 23.492 16.2276 23.492 18.0067C23.492 19.7857 23.4841 19.994 23.4529 20.6973Z" fill="white"/>
<path d="M18.0247 14.5763C16.1338 14.5763 14.5996 16.1104 14.5996 18.0015C14.5996 19.8925 16.1338 21.4266 18.0247 21.4266C19.9157 21.4266 21.4499 19.8925 21.4499 18.0015C21.4499 16.1104 19.9157 14.5763 18.0247 14.5763ZM18.0247 20.2233C16.798 20.2233 15.8029 19.2283 15.8029 18.0015C15.8029 16.7746 16.798 15.7797 18.0247 15.7797C19.2516 15.7797 20.2465 16.7746 20.2465 18.0015C20.2465 19.2283 19.2516 20.2233 18.0247 20.2233Z" fill="white"/>
<path d="M22.385 14.4409C22.385 14.8825 22.027 15.2405 21.5853 15.2405C21.1437 15.2405 20.7857 14.8825 20.7857 14.4409C20.7857 13.9992 21.1437 13.6413 21.5853 13.6413C22.027 13.6413 22.385 13.9992 22.385 14.4409Z" fill="white"/>
<defs>
<linearGradient id="paint0_linear_883_310" x1="-2.23517e-08" y1="2" x2="36" y2="35" gradientUnits="userSpaceOnUse">
<stop stop-color="#7572D9" stop-opacity="0.6"/>
<stop offset="0.779167" stop-color="#D62FC3" stop-opacity="0.6"/>
<stop offset="0.9999" stop-color="#B959C6" stop-opacity="0.6"/>
</linearGradient>
</defs>
</svg>
