<svg width="61" height="13" viewBox="0 0 61 13" fill="none" xmlns="http://www.w3.org/2000/svg">
<rect y="1" width="51" height="11" rx="3" fill="#301C49"/>
<circle cx="6.5" cy="5.5" r="2" stroke="white"/>
<path d="M4 9H9" stroke="white"/>
<path d="M15.3672 6.56641C15.3672 6.23047 15.3906 5.89974 15.4375 5.57422C15.487 5.2487 15.5703 4.94401 15.6875 4.66016C15.8047 4.3763 15.9661 4.1263 16.1719 3.91016C16.3802 3.69401 16.6419 3.52474 16.957 3.40234C17.2721 3.27734 17.651 3.21484 18.0938 3.21484C18.2083 3.21484 18.3372 3.22005 18.4805 3.23047C18.6237 3.24089 18.7422 3.25781 18.8359 3.28125V4.04297C18.7344 4.01432 18.6224 3.99219 18.5 3.97656C18.3802 3.96094 18.2604 3.95312 18.1406 3.95312C17.6615 3.95312 17.2878 4.04427 17.0195 4.22656C16.7513 4.40625 16.5599 4.65365 16.4453 4.96875C16.3307 5.28125 16.2643 5.63932 16.2461 6.04297H16.293C16.3711 5.91276 16.4688 5.79688 16.5859 5.69531C16.7031 5.59375 16.8464 5.51302 17.0156 5.45312C17.1849 5.39062 17.3815 5.35938 17.6055 5.35938C17.9388 5.35938 18.2292 5.42969 18.4766 5.57031C18.724 5.70833 18.9141 5.90885 19.0469 6.17188C19.1823 6.4349 19.25 6.75391 19.25 7.12891C19.25 7.53255 19.1732 7.88021 19.0195 8.17188C18.8685 8.46354 18.6523 8.6875 18.3711 8.84375C18.0924 9 17.7604 9.07812 17.375 9.07812C17.0911 9.07812 16.8268 9.02604 16.582 8.92188C16.3398 8.81771 16.1276 8.66146 15.9453 8.45312C15.763 8.24479 15.6211 7.98438 15.5195 7.67188C15.418 7.35677 15.3672 6.98828 15.3672 6.56641ZM17.3594 8.32031C17.6562 8.32031 17.8945 8.22396 18.0742 8.03125C18.2565 7.83594 18.3477 7.53776 18.3477 7.13672C18.3477 6.8112 18.2669 6.55339 18.1055 6.36328C17.9466 6.17318 17.707 6.07812 17.3867 6.07812C17.168 6.07812 16.9766 6.125 16.8125 6.21875C16.6484 6.3125 16.5208 6.43099 16.4297 6.57422C16.3411 6.71745 16.2969 6.86328 16.2969 7.01172C16.2969 7.16276 16.319 7.3151 16.3633 7.46875C16.4076 7.6224 16.474 7.76432 16.5625 7.89453C16.651 8.02214 16.7617 8.125 16.8945 8.20312C17.0273 8.28125 17.1823 8.32031 17.3594 8.32031ZM23.8047 9H19.9375V8.30859L21.418 6.80859C21.7044 6.51693 21.9401 6.26562 22.125 6.05469C22.3099 5.84115 22.4466 5.63932 22.5352 5.44922C22.6263 5.25911 22.6719 5.05208 22.6719 4.82812C22.6719 4.55208 22.5924 4.34375 22.4336 4.20312C22.2747 4.0599 22.0651 3.98828 21.8047 3.98828C21.5573 3.98828 21.3281 4.03776 21.1172 4.13672C20.9089 4.23307 20.6927 4.37109 20.4688 4.55078L19.9648 3.94531C20.1237 3.8099 20.293 3.6862 20.4727 3.57422C20.6549 3.46224 20.8581 3.3737 21.082 3.30859C21.306 3.24089 21.5612 3.20703 21.8477 3.20703C22.2096 3.20703 22.5221 3.27214 22.7852 3.40234C23.0482 3.52995 23.25 3.70833 23.3906 3.9375C23.5339 4.16667 23.6055 4.43359 23.6055 4.73828C23.6055 5.04557 23.5443 5.32943 23.4219 5.58984C23.2995 5.85026 23.125 6.10807 22.8984 6.36328C22.6719 6.61589 22.4023 6.89062 22.0898 7.1875L21.1016 8.15234V8.19531H23.8047V9ZM28.375 5.72266C28.375 6.0612 28.3503 6.39323 28.3008 6.71875C28.2539 7.04427 28.1706 7.34896 28.0508 7.63281C27.9336 7.91667 27.7708 8.16797 27.5625 8.38672C27.3568 8.60286 27.0964 8.77214 26.7812 8.89453C26.4661 9.01693 26.0859 9.07812 25.6406 9.07812C25.5286 9.07812 25.3984 9.07161 25.25 9.05859C25.1042 9.04818 24.9844 9.03255 24.8906 9.01172V8.24609C24.9896 8.27474 25.1003 8.29818 25.2227 8.31641C25.3477 8.33203 25.4714 8.33984 25.5938 8.33984C26.0755 8.33984 26.4505 8.25 26.7188 8.07031C26.9896 7.89062 27.181 7.64323 27.293 7.32812C27.4076 7.01302 27.4727 6.65495 27.4883 6.25391H27.4414C27.3659 6.37891 27.2708 6.49349 27.1562 6.59766C27.0417 6.69922 26.8997 6.78125 26.7305 6.84375C26.5612 6.90365 26.3555 6.93359 26.1133 6.93359C25.7852 6.93359 25.4987 6.86458 25.2539 6.72656C25.0117 6.58854 24.8229 6.38802 24.6875 6.125C24.5547 5.85938 24.4883 5.54036 24.4883 5.16797C24.4883 4.76432 24.5651 4.41667 24.7188 4.125C24.8724 3.83333 25.0898 3.60938 25.3711 3.45312C25.6523 3.29427 25.9831 3.21484 26.3633 3.21484C26.6497 3.21484 26.9141 3.26693 27.1562 3.37109C27.401 3.47266 27.6146 3.62891 27.7969 3.83984C27.9792 4.04818 28.1211 4.3099 28.2227 4.625C28.3242 4.9375 28.375 5.30339 28.375 5.72266ZM26.375 3.97266C26.0859 3.97266 25.8503 4.07031 25.668 4.26562C25.4857 4.45833 25.3945 4.75521 25.3945 5.15625C25.3945 5.48177 25.4727 5.73958 25.6289 5.92969C25.7852 6.11979 26.0247 6.21484 26.3477 6.21484C26.5716 6.21484 26.7643 6.16927 26.9258 6.07812C27.0898 5.98438 27.2161 5.86589 27.3047 5.72266C27.3958 5.57943 27.4414 5.43359 27.4414 5.28516C27.4414 5.13151 27.4193 4.97786 27.375 4.82422C27.3333 4.67057 27.2682 4.52995 27.1797 4.40234C27.0911 4.27474 26.9792 4.17188 26.8438 4.09375C26.7109 4.01302 26.5547 3.97266 26.375 3.97266ZM31.0195 3.21094C31.3503 3.21094 31.6484 3.26302 31.9141 3.36719C32.1797 3.46875 32.3906 3.62109 32.5469 3.82422C32.7031 4.02734 32.7812 4.27865 32.7812 4.57812C32.7812 4.8099 32.7331 5.01172 32.6367 5.18359C32.543 5.35547 32.4154 5.50651 32.2539 5.63672C32.0924 5.76432 31.9115 5.8776 31.7109 5.97656C31.9349 6.08594 32.1406 6.21224 32.3281 6.35547C32.5182 6.49609 32.6706 6.66146 32.7852 6.85156C32.9023 7.04167 32.9609 7.26432 32.9609 7.51953C32.9609 7.83984 32.8789 8.11719 32.7148 8.35156C32.5534 8.58333 32.3281 8.76302 32.0391 8.89062C31.75 9.01562 31.4128 9.07812 31.0273 9.07812C30.6133 9.07812 30.2604 9.01693 29.9688 8.89453C29.6771 8.77214 29.4557 8.59766 29.3047 8.37109C29.1536 8.14193 29.0781 7.86849 29.0781 7.55078C29.0781 7.28776 29.1302 7.0599 29.2344 6.86719C29.3385 6.67448 29.4779 6.50781 29.6523 6.36719C29.8294 6.22656 30.0234 6.10807 30.2344 6.01172C30.0547 5.90495 29.8906 5.78516 29.7422 5.65234C29.5938 5.51693 29.4753 5.36198 29.3867 5.1875C29.3008 5.01042 29.2578 4.80599 29.2578 4.57422C29.2578 4.27734 29.3372 4.02865 29.4961 3.82812C29.6549 3.625 29.8672 3.47135 30.1328 3.36719C30.401 3.26302 30.6966 3.21094 31.0195 3.21094ZM29.9531 7.51562C29.9531 7.76562 30.0417 7.97135 30.2188 8.13281C30.3958 8.29427 30.6602 8.375 31.0117 8.375C31.3607 8.375 31.6263 8.29557 31.8086 8.13672C31.9909 7.97786 32.082 7.76823 32.082 7.50781C32.082 7.34115 32.0352 7.19401 31.9414 7.06641C31.8503 6.9388 31.7266 6.82552 31.5703 6.72656C31.4167 6.625 31.2461 6.53125 31.0586 6.44531L30.9336 6.39453C30.7305 6.48047 30.556 6.57812 30.4102 6.6875C30.2643 6.79427 30.151 6.91536 30.0703 7.05078C29.9922 7.1862 29.9531 7.34115 29.9531 7.51562ZM31.0117 3.91797C30.7591 3.91797 30.5508 3.98047 30.3867 4.10547C30.2253 4.22786 30.1445 4.40495 30.1445 4.63672C30.1445 4.80078 30.1836 4.94141 30.2617 5.05859C30.3424 5.17578 30.4505 5.27734 30.5859 5.36328C30.7214 5.44661 30.8711 5.52474 31.0352 5.59766C31.194 5.52734 31.3372 5.45052 31.4648 5.36719C31.5951 5.28125 31.6979 5.17969 31.7734 5.0625C31.8516 4.94271 31.8906 4.79948 31.8906 4.63281C31.8906 4.40365 31.8086 4.22786 31.6445 4.10547C31.4831 3.98047 31.2721 3.91797 31.0117 3.91797ZM35.5977 3.21094C35.9284 3.21094 36.2266 3.26302 36.4922 3.36719C36.7578 3.46875 36.9688 3.62109 37.125 3.82422C37.2812 4.02734 37.3594 4.27865 37.3594 4.57812C37.3594 4.8099 37.3112 5.01172 37.2148 5.18359C37.1211 5.35547 36.9935 5.50651 36.832 5.63672C36.6706 5.76432 36.4896 5.8776 36.2891 5.97656C36.513 6.08594 36.7188 6.21224 36.9062 6.35547C37.0964 6.49609 37.2487 6.66146 37.3633 6.85156C37.4805 7.04167 37.5391 7.26432 37.5391 7.51953C37.5391 7.83984 37.457 8.11719 37.293 8.35156C37.1315 8.58333 36.9062 8.76302 36.6172 8.89062C36.3281 9.01562 35.9909 9.07812 35.6055 9.07812C35.1914 9.07812 34.8385 9.01693 34.5469 8.89453C34.2552 8.77214 34.0339 8.59766 33.8828 8.37109C33.7318 8.14193 33.6562 7.86849 33.6562 7.55078C33.6562 7.28776 33.7083 7.0599 33.8125 6.86719C33.9167 6.67448 34.056 6.50781 34.2305 6.36719C34.4076 6.22656 34.6016 6.10807 34.8125 6.01172C34.6328 5.90495 34.4688 5.78516 34.3203 5.65234C34.1719 5.51693 34.0534 5.36198 33.9648 5.1875C33.8789 5.01042 33.8359 4.80599 33.8359 4.57422C33.8359 4.27734 33.9154 4.02865 34.0742 3.82812C34.2331 3.625 34.4453 3.47135 34.7109 3.36719C34.9792 3.26302 35.2747 3.21094 35.5977 3.21094ZM34.5312 7.51562C34.5312 7.76562 34.6198 7.97135 34.7969 8.13281C34.974 8.29427 35.2383 8.375 35.5898 8.375C35.9388 8.375 36.2044 8.29557 36.3867 8.13672C36.569 7.97786 36.6602 7.76823 36.6602 7.50781C36.6602 7.34115 36.6133 7.19401 36.5195 7.06641C36.4284 6.9388 36.3047 6.82552 36.1484 6.72656C35.9948 6.625 35.8242 6.53125 35.6367 6.44531L35.5117 6.39453C35.3086 6.48047 35.1341 6.57812 34.9883 6.6875C34.8424 6.79427 34.7292 6.91536 34.6484 7.05078C34.5703 7.1862 34.5312 7.34115 34.5312 7.51562ZM35.5898 3.91797C35.3372 3.91797 35.1289 3.98047 34.9648 4.10547C34.8034 4.22786 34.7227 4.40495 34.7227 4.63672C34.7227 4.80078 34.7617 4.94141 34.8398 5.05859C34.9206 5.17578 35.0286 5.27734 35.1641 5.36328C35.2995 5.44661 35.4492 5.52474 35.6133 5.59766C35.7721 5.52734 35.9154 5.45052 36.043 5.36719C36.1732 5.28125 36.276 5.17969 36.3516 5.0625C36.4297 4.94271 36.4688 4.79948 36.4688 4.63281C36.4688 4.40365 36.3867 4.22786 36.2227 4.10547C36.0612 3.98047 35.8503 3.91797 35.5898 3.91797ZM40.9492 9H40.0273V5.32422C40.0273 5.20182 40.0286 5.07943 40.0312 4.95703C40.0339 4.83464 40.0365 4.71484 40.0391 4.59766C40.0443 4.48047 40.0508 4.36849 40.0586 4.26172C40.0039 4.32161 39.9362 4.38672 39.8555 4.45703C39.7773 4.52734 39.694 4.60026 39.6055 4.67578L38.9492 5.19922L38.4883 4.61719L40.1836 3.28906H40.9492V9Z" fill="white"/>
</svg>
