<svg width="17" height="17" viewBox="0 0 17 17" fill="none" xmlns="http://www.w3.org/2000/svg">
<path d="M14.5387 4.23084L13.7264 3.28582C13.0377 2.56241 12.2089 1.9867 11.2906 1.59374C10.3723 1.20077 9.38362 0.998762 8.38476 1.00001C4.30776 1.00001 1 4.30776 1 8.38477C1 12.4618 4.30776 15.7695 8.38476 15.7695C9.91211 15.7694 11.4019 15.296 12.6491 14.4143C13.8962 13.5327 14.8395 12.2862 15.3491 10.8464" stroke="white" stroke-width="2" stroke-miterlimit="10" stroke-linecap="round"/>
<path d="M17.0003 2.28542V6.53858C17.0003 6.7018 16.9355 6.85833 16.8201 6.97374C16.7047 7.08914 16.5481 7.15398 16.3849 7.15398H12.1318C11.5833 7.15398 11.3087 6.49128 11.6964 6.10358L15.9499 1.85003C16.3376 1.46156 17.0003 1.73695 17.0003 2.28542Z" fill="white"/>
</svg>
